<svg width="140" height="60" viewBox="0 0 140 60" fill="none" xmlns="http://www.w3.org/2000/svg">
<g clip-path="url(#clip0_301_3542)">
<path d="M125.546 18.0951C125.609 17.1631 126.399 16.0871 127.832 16.0871C129.412 16.0871 130.077 17.0811 130.118 18.0951H125.546ZM127.791 13.8501C125.172 13.8501 122.76 15.9631 122.76 19.2141C122.76 22.6521 125.234 24.6601 128.04 24.6601C130.555 24.6601 132.176 23.1901 132.696 21.4301L130.389 20.7471C130.056 21.6581 129.35 22.3001 128.061 22.3001C126.689 22.3001 125.546 21.3261 125.484 19.9801H132.8L132.842 19.1311C132.842 15.8591 130.95 13.8501 127.791 13.8501Z" fill="white"/>
<path d="M65.6 36.449C65.626 34.505 67.035 33.047 68.898 33.047C70.919 33.047 72.18 34.349 72.202 36.449H65.6ZM73.468 37.346L73.483 36.736C73.483 33.851 71.674 31.986 68.876 31.986C66.6 31.986 64.245 33.906 64.245 37.12C64.245 40.692 66.78 42.318 69.137 42.318C71.067 42.318 72.637 41.33 73.336 39.674L73.359 39.619L72.292 39.251L72.272 39.297C71.704 40.578 70.621 41.255 69.138 41.255C67.012 41.255 65.577 39.707 65.554 37.397H73.466L73.469 37.344L73.468 37.346ZM14.876 0L-0.0219727 25.816V31.469L18.138 0H14.876Z" fill="white"/>
<path d="M57.4922 22.1441V18.1911H58.7852C59.8812 18.1911 60.3412 18.2781 60.8012 18.5401C61.3492 18.8671 61.6342 19.4141 61.6342 20.1991C61.6342 20.8971 61.3932 21.4221 60.9102 21.7491C60.4722 22.0551 59.9902 22.1431 58.9602 22.1431L57.4922 22.1441ZM57.4922 12.0571H58.5442C59.3992 12.0571 60.0122 12.1441 60.4292 12.3411C60.9552 12.6031 61.3052 13.2361 61.3052 13.9781C61.3052 15.3321 60.4722 15.9651 58.6972 15.9651H57.4922V12.0571ZM63.1472 23.6521C64.0892 23.0181 64.6592 21.8181 64.6592 20.4651C64.6592 19.3511 64.2862 18.4561 63.6072 17.8441C63.1472 17.4291 62.7522 17.2551 61.8752 17.0581C62.6642 16.7961 62.9922 16.6001 63.4102 16.1851C64.0242 15.5301 64.3302 14.7001 64.3302 13.6961C64.3302 12.4081 63.8252 11.2941 62.9272 10.6181C62.1602 10.0511 60.9992 9.78809 59.2022 9.78809H54.4902V24.3501H59.8822C61.4822 24.3501 62.3802 24.1541 63.1472 23.6521ZM139.672 13.8911C139.058 13.8911 138.467 14.0661 138.028 14.3711C137.612 14.6761 137.413 14.9831 137.129 15.7251V14.2401H134.345V24.3491H137.129V19.4801C137.129 18.5191 137.217 18.0831 137.545 17.6251C137.94 17.0571 138.641 16.7081 139.409 16.7081L140 16.7521V13.9141C139.847 13.8921 139.737 13.8921 139.671 13.8921M103.737 33.7581V32.1681H102.55V42.1491H103.737V36.9441C103.737 35.5361 103.987 34.7651 104.692 33.9991C105.206 33.4471 105.837 33.1801 106.677 33.1581H107.098V31.9971H106.612C105.857 31.9971 105.096 32.2421 104.574 32.6541C104.205 32.9601 103.996 33.2291 103.737 33.7581Z" fill="white"/>
<path d="M109.521 18.3451C109.521 16.9481 110.068 16.2271 111.12 16.2271C112.128 16.2271 112.655 16.9481 112.655 18.3451V24.3501H115.439V18.2581C115.439 16.9701 116.031 16.2271 117.061 16.2271C118.113 16.2271 118.616 16.8821 118.616 18.2581V24.3501H121.399V17.7351C121.399 16.2071 121.202 15.5081 120.588 14.8311C120.018 14.2201 119.163 13.8921 118.133 13.8921C116.687 13.8921 115.744 14.4171 115.064 15.5741C114.582 14.4821 113.618 13.8921 112.303 13.8921C111.01 13.8921 110.155 14.3951 109.52 15.5071V14.2401H106.736V24.3491H109.52V18.3441" fill="white"/>
<path d="M100.366 16.086C101.946 16.086 102.611 17.08 102.652 18.094H98.08C98.143 17.162 98.932 16.086 100.366 16.086ZM100.573 24.659C103.088 24.659 104.709 23.189 105.229 21.429L102.922 20.746C102.589 21.657 101.883 22.299 100.594 22.299C99.222 22.299 98.079 21.325 98.017 19.979H105.334L105.375 19.13C105.375 15.858 103.483 13.849 100.324 13.849C97.705 13.849 95.294 15.962 95.294 19.213C95.294 22.651 97.767 24.659 100.573 24.659ZM31.383 0L-0.0219727 54.193V59.828L31.383 5.635L38.001 17.055L13.245 59.827H16.51L31.388 34.12L38.001 45.531L29.745 59.827H33.008L41.266 45.529L33.02 31.301L41.266 17.055L31.383 0Z" fill="white"/>
<path d="M81.133 22.6461C80.322 22.6461 79.928 22.2531 79.796 21.3801H77.122C77.231 23.4761 78.699 24.6981 81.11 24.6981C83.476 24.6981 85.055 23.3881 85.055 21.4231C85.055 19.7861 84.156 18.8901 81.877 18.1911C80.474 17.7551 80.452 17.7551 80.145 17.5141C79.97 17.3831 79.86 17.1211 79.86 16.8591C79.86 16.3131 80.298 15.9431 80.977 15.9431C81.722 15.9431 82.271 16.3791 82.271 16.9911V17.1661H84.901C84.835 15.1131 83.433 13.8911 81.109 13.8911C78.743 13.8911 77.186 15.1791 77.186 17.1001C77.186 18.6951 78.172 19.6761 80.364 20.3321C81.854 20.7901 82.249 21.0751 82.249 21.6861C82.249 22.2531 81.79 22.6461 81.133 22.6461ZM90.314 22.6471C89.503 22.6471 89.109 22.2541 88.977 21.3811H86.303C86.412 23.4771 87.88 24.6991 90.291 24.6991C92.657 24.6991 94.236 23.3891 94.236 21.4241C94.236 19.7871 93.337 18.8911 91.058 18.1921C89.655 17.7561 89.633 17.7561 89.326 17.5151C89.151 17.3841 89.041 17.1221 89.041 16.8601C89.041 16.3141 89.479 15.9441 90.158 15.9441C90.903 15.9441 91.451 16.3801 91.451 16.9921V17.1671H94.081C94.016 15.1141 92.613 13.8921 90.289 13.8921C87.923 13.8921 86.366 15.1801 86.366 17.1011C86.366 18.6961 87.352 19.6771 89.544 20.3331C91.034 20.7911 91.429 21.0761 91.429 21.6871C91.429 22.2541 90.969 22.6471 90.312 22.6471M112.561 50.3351C112.192 50.6411 111.983 50.9101 111.725 51.4391V49.8501H110.539V59.8311H111.725V54.6261C111.725 53.2181 111.975 52.4471 112.68 51.6811C113.193 51.1281 113.824 50.8611 114.664 50.8401H115.086V49.6791H114.6C113.845 49.6791 113.083 49.9241 112.561 50.3351ZM90.271 42.0781V41.1191L90.232 41.0561L90.159 41.0811C89.761 41.2181 89.343 41.2871 88.923 41.2861C88.003 41.2861 87.516 40.7091 87.516 39.6181V33.1961H90.137V32.1671H87.516V29.7721H86.331V32.1671H84.857V33.1951H86.331V39.6921C86.331 41.3571 87.255 42.3121 88.865 42.3121C89.515 42.3121 89.911 42.2041 90.234 42.0911L90.27 42.0771M87.368 58.7611C86.9706 58.8978 86.5532 58.9671 86.133 58.9661C85.213 58.9661 84.726 58.3891 84.726 57.2971V50.8751H87.347V49.8481H84.726V47.4501H83.541V49.8451H82.067V50.8721H83.541V57.3691C83.541 59.0341 84.465 59.9891 86.076 59.9891C86.542 59.9991 87.005 59.9241 87.444 59.7681L87.48 59.7551V58.7961L87.44 58.7331L87.367 58.7571M94.199 49.6751C93.5487 49.6658 92.9045 49.8003 92.3124 50.0691C91.7202 50.338 91.1949 50.7344 90.774 51.2301V49.8451H89.587V59.8261H90.774V53.7201C90.774 52.7841 90.964 52.2871 91.556 51.6761C92.124 51.0891 92.725 50.7241 93.957 50.7241L94.148 50.7271C95.31 50.7621 96.55 51.4741 96.544 53.3751V59.8251H97.732V53.3431C97.758 52.2451 97.448 51.3581 96.81 50.7081C96.172 50.0581 95.198 49.6731 94.198 49.6731M100.372 32.1631H99.19V38.2361C99.19 39.2531 99.026 39.8121 98.587 40.2991C98.079 40.8531 97.21 41.2111 96.372 41.2111C94.687 41.2111 93.556 40.0161 93.556 38.2371L93.557 32.1641H92.372V38.2371C92.372 40.6781 93.989 42.3181 96.397 42.3181C97.514 42.3181 98.562 41.9031 99.344 41.1491C100.104 40.4391 100.372 39.6771 100.372 38.2371V32.1641M82.276 42.1441H83.463V35.6611C83.489 34.5631 83.179 33.6761 82.542 33.0261C81.905 32.3761 80.931 31.9911 79.93 31.9911C78.572 31.9911 77.39 32.5281 76.505 33.5471V32.1621H75.319V42.1431H76.505V36.0371C76.505 35.1011 76.695 34.6041 77.287 33.9931C77.855 33.4061 78.455 33.0421 79.688 33.0421L79.879 33.0451C81.041 33.0801 82.282 33.7921 82.276 35.6931V42.1441ZM100.824 54.1281C100.85 52.1841 102.259 50.7261 104.121 50.7261C106.142 50.7261 107.404 52.0281 107.425 54.1281H100.824ZM104.099 49.6651C101.823 49.6651 99.468 51.5851 99.468 54.7991C99.468 58.3711 102.003 59.9971 104.359 59.9971C106.289 59.9971 107.859 59.0091 108.559 57.3531L108.582 57.2991L107.514 56.9311L107.493 56.9771C106.925 58.2581 105.842 58.9351 104.359 58.9351C102.233 58.9351 100.798 57.3871 100.775 55.0771H108.687L108.69 55.0251L108.705 54.4151C108.705 51.5301 106.897 49.6651 104.099 49.6651ZM59.55 42.1471L64.778 27.8461L63.472 27.8081L59.021 40.1041L54.744 27.8471L53.397 27.8271L58.485 42.1471H59.55ZM61.835 51.6371C61.4651 52.1658 60.9278 52.5543 60.31 52.7401C59.798 52.9231 59.224 52.9971 58.325 52.9971L56.122 52.9831V46.6101H57.917C58.956 46.6101 59.575 46.6741 60.202 46.8461C61.56 47.2321 62.404 48.3611 62.404 49.7911C62.41 50.4501 62.211 51.0941 61.835 51.6351V51.6371ZM62.179 46.5591C61.31 45.8661 60.064 45.5301 58.37 45.5301L54.908 45.5151L54.893 59.8301H56.123L56.138 54.0791H58.564C60.204 54.0791 61.239 53.8161 62.028 53.2011C63.026 52.4391 63.599 51.1901 63.599 49.7731C63.599 48.4421 63.094 47.3011 62.179 46.5591ZM112.355 33.0491C114.375 33.0491 115.637 34.3511 115.659 36.4511H109.058C109.084 34.5071 110.493 33.0491 112.355 33.0491ZM116.816 39.6221L115.748 39.2541L115.727 39.3001C115.159 40.5811 114.076 41.2581 112.593 41.2581C110.467 41.2581 109.032 39.7101 109.009 37.4001H116.921L116.924 37.3471L116.939 36.7371C116.939 33.8521 115.13 31.9871 112.332 31.9871C110.056 31.9871 107.701 33.9071 107.701 37.1211C107.701 40.6931 110.236 42.3191 112.592 42.3191C114.522 42.3191 116.091 41.3311 116.792 39.6751L116.815 39.6201L116.816 39.6211V39.6221ZM78.087 50.3331C77.717 50.6391 77.509 50.9081 77.251 51.4371V49.8481H76.065V59.8291H77.252V54.6241C77.252 53.2151 77.502 52.4441 78.207 51.6791C78.721 51.1261 79.352 50.8591 80.192 50.8381H80.613V49.6771H80.127C79.372 49.6771 78.61 49.9221 78.09 50.3331M119.966 54.2061C118.156 53.7601 117.661 53.3651 117.661 52.3711C117.661 51.3861 118.474 50.7741 119.781 50.7741C121.156 50.7741 121.945 51.4031 121.945 52.5001V52.5551H123.178L123.175 52.4981C123.087 50.7321 121.827 49.6781 119.802 49.6781C117.817 49.6781 116.43 50.8131 116.43 52.4361C116.43 53.1511 116.759 53.8821 117.288 54.3431C117.797 54.8071 118.423 55.0831 119.595 55.3651C121.37 55.7851 122.03 56.3001 122.03 57.2641C122.03 58.2591 121.161 58.9261 119.867 58.9261C118.421 58.9261 117.507 58.2151 117.423 57.0251L117.419 56.9731H116.207L116.214 57.0341C116.43 59.0031 117.645 60.0011 119.822 60.0011C121.877 60.0011 123.258 58.9011 123.258 57.2631C123.249 56.5503 122.966 55.8683 122.468 55.3581C121.96 54.8311 121.305 54.5291 119.964 54.2061M70.94 16.0861C72.519 16.0861 73.185 17.0801 73.226 18.0941H68.653C68.715 17.1621 69.506 16.0861 70.94 16.0861ZM73.496 20.7461C73.163 21.6571 72.456 22.2991 71.168 22.2991C69.796 22.2991 68.653 21.3251 68.591 19.9791H75.907L75.949 19.1301C75.949 15.8581 74.057 13.8491 70.898 13.8491C68.279 13.8491 65.868 15.9621 65.868 19.2131C65.868 22.6511 68.342 24.6591 71.148 24.6591C73.663 24.6591 75.284 23.1891 75.804 21.4291L73.496 20.7461ZM68.856 58.8831C66.911 58.8831 65.443 57.1721 65.443 54.9041C65.443 53.8481 65.761 52.8041 66.316 52.0391C66.948 51.1791 67.751 50.7951 68.921 50.7951C71.078 50.7951 72.527 52.3601 72.527 54.6881C72.527 57.0011 70.88 58.8831 68.856 58.8831ZM72.505 51.5571C71.568 50.2921 70.364 49.6781 68.834 49.6781C66.113 49.6781 64.213 51.8011 64.213 54.8391C64.213 57.8311 66.166 60.0021 68.857 60.0021C70.361 60.0021 71.525 59.2941 72.506 57.7771V59.8301H73.693V49.8491H72.506L72.505 51.5571Z" fill="white"/>
</g>
<defs>
<clipPath id="clip0_301_3542">
<rect width="140" height="60" fill="white"/>
</clipPath>
</defs>
</svg>
