<svg width="200" height="34" viewBox="0 0 200 34" fill="none" xmlns="http://www.w3.org/2000/svg">
<g clip-path="url(#clip0_7_1024)">
<path d="M0 24.7969H21.4283L14.2856 17.8521H7.14278V10.9074L0 3.96259V24.7969Z" fill="#303030"/>
<path d="M27.1019 24.2272L28.3358 24.06C29.4331 23.9262 29.8099 23.7268 29.8099 23.4593V5.22843C29.8099 4.96089 29.6051 4.8296 28.0273 4.66239L27.1361 4.52863L27.0324 3.96259H38.4141L38.3104 4.52863L36.8705 4.69584C35.9792 4.76148 35.3964 4.96089 35.3964 5.29531V23.9274L36.5961 24.0947C40.0234 24.0947 42.1498 22.695 44.4469 17.8286L44.8236 17.0285H45.8868L44.9273 24.7957H26.9995L27.1019 24.2272Z" fill="#303030"/>
<path d="M48.477 24.2274L48.9574 24.194C49.9523 24.1283 50.329 24.0268 50.329 23.6279V14.8959C50.329 12.8287 50.0534 12.5636 48.8891 12.228L48.2026 12.0607L55.2974 9.81514V23.6577C55.2974 23.9586 55.5022 24.0243 56.9421 24.1903L57.2506 24.2237L57.3542 24.7897H48.3733L48.4757 24.2237V24.2274H48.477ZM49.6767 5.12831C49.6767 3.69526 50.841 2.3291 52.6236 2.3291C54.4061 2.3291 55.6071 3.6965 55.6071 5.12831C55.6071 6.56136 54.4769 7.96097 52.6236 7.96097C50.7715 7.96097 49.6767 6.56012 49.6767 5.12831Z" fill="#303030"/>
<path d="M59.6703 22.7921C59.6703 20.9924 61.5211 19.6584 63.5451 19.0924V19.0589C61.5907 18.3926 60.2557 17.1255 60.2557 14.8267C60.2557 12.1612 62.9977 9.65924 67.0432 9.65924C68.5868 9.65924 70.2315 10.0259 71.2947 10.6266L76.2998 10.094L76.0241 12.2269L72.5969 11.7265L72.5627 11.8268C73.3162 12.461 73.7637 13.3936 73.7637 14.4266C73.7637 17.393 70.9521 19.4925 66.8043 19.4925C65.9471 19.4925 65.1595 19.4243 64.4389 19.2906C63.5477 19.5247 62.932 20.1576 62.932 20.7917C62.932 21.5906 63.7196 21.9585 65.5363 21.9585C66.5995 21.9585 69.1013 21.8582 70.4035 21.8582C73.454 21.8582 75.5804 23.5253 75.5804 26.1908C75.5804 29.7567 71.5703 32.8234 65.913 32.8234C61.4567 32.8234 59.262 31.7223 59.262 29.4904C59.262 27.7241 61.2847 26.8249 63.3416 26.057C61.3201 25.8217 59.6729 24.3898 59.6729 22.7896H59.6703V22.7921ZM72.3567 28.4921C72.3567 26.7915 71.1898 26.2589 68.7575 26.0917C68.004 25.9913 66.4263 26.0582 64.1987 26.1573C63.2038 26.5921 62.9307 27.4578 62.9307 28.658C62.9307 30.4577 64.7133 31.8239 67.6943 31.8239C70.473 31.8251 72.3567 30.3921 72.3567 28.4921ZM69.1013 14.6917C69.1013 11.8256 68.3137 10.3913 67.0091 10.3913C65.6033 10.3913 65.0205 11.5258 65.0205 14.6582C65.0205 17.5565 65.7398 18.8249 67.0091 18.8249C68.449 18.8261 69.1013 17.725 69.1013 14.6917Z" fill="#303030"/>
<path d="M78.1294 24.1926C79.1585 24.1269 79.4998 24.0253 79.4998 23.6265V7.02817C79.4998 5.3957 79.295 5.09472 78.3355 4.79499L77.376 4.42836L84.5402 2.16174V12.561H84.5744C86.3228 11.1613 88.3796 9.66265 90.5048 9.66265C91.635 9.66265 92.5262 10.0615 93.3505 10.8628C94.1381 11.663 94.4807 13.1951 94.4807 14.8301V23.6302C94.4807 23.8631 94.6526 23.9969 96.1596 24.1963L96.5363 24.2297L96.6387 24.7958H87.7614L87.8638 24.2297L88.4466 24.1963C89.5768 24.1306 89.544 23.8978 89.544 23.6302V15.7974C89.544 13.3314 88.4808 12.6972 86.8702 12.6972C85.8752 12.6972 85.0535 13.0304 84.4707 13.3636V23.6624C84.4707 23.9634 84.6426 24.0972 85.807 24.195L86.3556 24.2285L86.4568 24.7945H77.5428L78.1256 24.1938L78.1294 24.1926Z" fill="#303030"/>
<path d="M112.373 24.3594L112.27 20.0937L113.229 20.1618L114.155 22.0283C115.321 23.6942 116.247 24.5625 118.029 24.5625C119.812 24.5625 120.737 23.6298 120.737 22.1955C120.737 20.6287 118.989 20.028 117.07 19.2948C114.466 18.3287 112.338 17.2957 112.338 14.5621C112.338 11.5957 114.807 9.69568 118.507 9.69568C119.741 9.69568 121.147 9.92854 122.072 10.2283L123.75 9.69568L123.923 14.6624L123.032 14.6959L120.428 10.964C119.879 10.663 119.297 10.4314 118.473 10.4314C116.999 10.4314 116.074 11.265 116.074 12.6299C116.074 14.1311 117.651 14.6971 119.707 15.4626C122.072 16.3952 124.608 17.3626 124.608 20.2955C124.608 22.8953 122.516 25.2623 117.924 25.2623C115.832 25.2623 113.71 24.8957 112.371 24.3606" fill="#303030"/>
<path d="M126.127 32.5932L126.848 32.5251C127.808 32.4594 128.186 32.3913 128.186 31.9912V14.8937C128.186 12.8265 127.947 12.559 126.78 12.2258L126.059 12.0586L133.191 9.8217L133.122 12.6605L133.26 12.7262C134.528 11.1594 136.414 9.79321 138.504 9.79321C141.965 9.79321 144.71 12.8934 144.71 16.9919C144.71 22.2906 140.39 25.2582 136.173 25.2582C134.905 25.2582 133.876 25.0588 133.26 24.7913H133.158V32.0581C133.158 32.3256 133.362 32.4929 134.77 32.5251L135.936 32.5932L136.04 33.1592H126.03L126.134 32.5932H126.127ZM139.36 18.3271C139.36 14.9259 137.886 12.5614 135.589 12.5614C134.526 12.5614 133.806 12.9628 133.154 13.4285V21.8608C134.251 23.5279 135.553 24.5609 136.514 24.5609C138.297 24.5609 139.36 21.8942 139.36 18.3271Z" fill="#303030"/>
<path d="M146.845 17.7323C146.845 13.0331 150.548 9.50061 155.346 9.50061C159.391 9.50061 161.481 12.0014 161.481 14.5008C161.481 14.834 161.447 15.2006 161.379 15.5016C161.379 15.5016 153.46 15.4013 152.122 15.3344C152.088 15.6354 152.088 16.168 152.088 16.469C152.122 19.968 153.974 22.4018 156.989 22.4018C158.876 22.4018 160.281 21.5001 161.207 19.8354L161.618 20.0349C160.417 23.3679 158.019 25.2332 154.247 25.2332C150.068 25.232 146.845 22.0996 146.845 17.7323ZM156.89 14.7003C156.924 12.5018 156.443 10.3342 154.868 10.3342C153.532 10.3342 152.365 11.8676 152.126 14.7337L156.892 14.7003H156.89Z" fill="#303030"/>
<path d="M163.686 17.8271C163.686 13.1279 167.386 9.5954 172.186 9.5954C176.232 9.5954 178.322 12.0962 178.322 14.5956C178.322 14.9288 178.287 15.2954 178.218 15.5964C178.218 15.5964 170.3 15.4961 168.961 15.4292C168.927 15.7302 168.927 16.2628 168.927 16.5637C168.961 20.0628 170.813 22.4966 173.829 22.4966C175.715 22.4966 177.121 21.5949 178.046 19.9302L178.457 20.1297C177.256 23.4627 174.858 25.328 171.087 25.328C166.903 25.328 163.682 22.1956 163.682 17.8284H163.686V17.8271ZM173.727 14.795C173.762 12.5965 173.282 10.429 171.706 10.429C170.37 10.429 169.203 11.9624 168.964 14.8285L173.727 14.795Z" fill="#303030"/>
<path d="M192.185 22.3278L192.117 22.2621C190.883 23.8611 188.861 25.262 186.839 25.262C183.341 25.262 180.633 22.0961 180.633 17.9952C180.633 12.6965 184.952 9.79568 189.375 9.79568C190.609 9.79568 191.5 9.96289 192.153 10.1945C192.153 10.1945 192.187 10.2602 192.187 10.1945V6.66205C192.187 4.9949 191.948 4.62828 191.02 4.39543L189.718 4.0288L197.155 1.6792V21.2267C197.155 22.8591 197.362 23.227 198.356 23.4933L199.316 23.7261L199.247 24.1584L192.187 25.2905V22.324V22.3278H192.185ZM192.185 21.493V13.2291C191.156 11.5966 189.854 10.5289 188.963 10.5289C187.078 10.5289 186.016 13.1288 186.016 16.7293C186.016 20.3299 187.49 22.5965 189.684 22.5965C190.713 22.5965 191.466 22.0961 192.187 21.4967" fill="#303030"/>
<path d="M110.15 21.8932C109.532 22.3601 108.606 22.7924 107.372 22.7924C105.556 22.7924 104.665 21.9588 104.699 19.3256L104.8 12.3263H109.633L110.078 10.2591H104.834L104.868 6.33649L100.098 7.84262L100.125 10.2492H99.2334L98.8326 10.6394L97.0918 12.3313H97.4331L100.137 12.4279L99.9995 20.2929C99.9312 23.5925 101.405 25.1928 104.56 25.1928C106.925 25.1928 108.707 23.9926 110.285 22.3255L110.147 21.8932H110.15Z" fill="#303030"/>
</g>
<defs>
<clipPath id="clip0_7_1024">
<rect width="200" height="33" fill="white" transform="translate(0 0.888184)"/>
</clipPath>
</defs>
</svg>
